<mxfile host="app.diagrams.net" modified="2023-11-16T07:09:25.178Z" agent="Mozilla/5.0 (X11; Linux x86_64) AppleWebKit/537.36 (KHTML, like Gecko) Chrome/116.0.0.0 Safari/537.36" version="22.1.2" etag="0RqHWGUKN4IgyVoHnMVh" type="github">
  <diagram name="Page-1" id="FJ1Xbpa1ME6UDlnwQRBW">
    <mxGraphModel>
      <root>
        <mxCell id="0" />
        <mxCell id="1" parent="0" />
      </root>
    </mxGraphModel>
  </diagram>
</mxfile>
